<svg width="24" height="24" viewBox="0 0 24 24" fill="none" xmlns="http://www.w3.org/2000/svg">
<path d="M19.7626 7.15388C19.1795 7.41184 18.561 7.58126 17.9278 7.65652C18.5952 7.25734 19.0948 6.6291 19.3333 5.88888C18.7069 6.26166 18.0202 6.52291 17.3044 6.66423C16.8237 6.14981 16.1864 5.80865 15.4917 5.69377C14.797 5.5789 14.0838 5.69676 13.463 6.02902C12.8423 6.36128 12.3486 6.88934 12.0589 7.53109C11.7692 8.17284 11.6996 8.89233 11.861 9.5777C10.5907 9.51403 9.34803 9.18393 8.21362 8.60883C7.07921 8.03373 6.07843 7.22649 5.27625 6.23951C4.9923 6.72721 4.84309 7.28163 4.84389 7.84597C4.84389 8.9536 5.40764 9.93215 6.26472 10.5051C5.75751 10.4891 5.26145 10.3521 4.81792 10.1055V10.1453C4.81807 10.883 5.07334 11.5979 5.54044 12.1689C6.00754 12.7398 6.65773 13.1317 7.38076 13.278C6.90991 13.4056 6.41621 13.4244 5.93701 13.333C6.14087 13.9679 6.5382 14.5233 7.07337 14.9212C7.60854 15.3191 8.25475 15.5397 8.92153 15.5521C8.25884 16.0725 7.50007 16.4573 6.68859 16.6843C5.87711 16.9113 5.02885 16.9762 4.19229 16.8751C5.65262 17.8143 7.35257 18.3129 9.08882 18.3112C14.9654 18.3112 18.1791 13.443 18.1791 9.22097C18.1791 9.08347 18.1753 8.94444 18.1692 8.80847C18.7947 8.35637 19.3346 7.79633 19.7634 7.15465L19.7626 7.15388Z" fill="white"/>
</svg>
